<svg width="100" height="100" viewBox="0 0 100 100" fill="none" xmlns="http://www.w3.org/2000/svg">
  <!-- Book base -->
  <path d="M10 20 L10 85 Q10 90 15 90 L85 90 Q90 90 90 85 L90 20 Q90 15 85 15 L15 15 Q10 15 10 20 Z" 
        fill="#f8fafc" 
        stroke="#1e293b" 
        stroke-width="3"/>
  
  <!-- Book pages -->
  <path d="M15 25 L85 25" stroke="#e2e8f0" stroke-width="1"/>
  <path d="M15 30 L85 30" stroke="#e2e8f0" stroke-width="1"/>
  <path d="M15 35 L85 35" stroke="#e2e8f0" stroke-width="1"/>
  
  <!-- Brain outline -->
  <path d="M20 35 Q15 30 15 40 Q15 45 20 50 Q25 55 30 50 Q35 45 40 50 Q42 52 40 55 Q35 60 30 65 Q25 70 30 75 Q35 78 40 75 Q45 70 50 75 Q52 77 50 80 Q45 82 40 80 L35 78 Q30 82 25 80 Q20 85 15 80 Q10 75 15 70 Q12 65 15 60 Q10 55 15 50 Q12 45 15 40 Q10 35 15 40 Q18 32 25 35 Z" 
        fill="none" 
        stroke="#1e293b" 
        stroke-width="2.5"/>
  
  <!-- Brain details -->
  <path d="M22 42 Q28 40 32 45" fill="none" stroke="#1e293b" stroke-width="1.5"/>
  <path d="M20 48 Q26 46 30 51" fill="none" stroke="#1e293b" stroke-width="1.5"/>
  <path d="M25 55 Q31 53 35 58" fill="none" stroke="#1e293b" stroke-width="1.5"/>
  <path d="M30 62 Q36 60 40 65" fill="none" stroke="#1e293b" stroke-width="1.5"/>
  
  <!-- Circuit board elements -->
  <!-- Main circuit lines -->
  <path d="M55 30 L85 30" stroke="#f59e0b" stroke-width="2"/>
  <path d="M55 40 L80 40" stroke="#f59e0b" stroke-width="2"/>
  <path d="M55 50 L75 50" stroke="#f59e0b" stroke-width="2"/>
  <path d="M55 60 L85 60" stroke="#f59e0b" stroke-width="2"/>
  
  <!-- Vertical connectors -->
  <path d="M65 25 L65 35" stroke="#f59e0b" stroke-width="2"/>
  <path d="M75 35 L75 45" stroke="#f59e0b" stroke-width="2"/>
  <path d="M70 45 L70 55" stroke="#f59e0b" stroke-width="2"/>
  <path d="M80 55 L80 65" stroke="#f59e0b" stroke-width="2"/>
  
  <!-- Circuit nodes -->
  <circle cx="65" cy="30" r="2.5" fill="#f59e0b"/>
  <circle cx="75" cy="40" r="2.5" fill="#f59e0b"/>
  <circle cx="70" cy="50" r="2.5" fill="#f59e0b"/>
  <circle cx="80" cy="60" r="2.5" fill="#f59e0b"/>
  <circle cx="85" cy="30" r="2.5" fill="#f59e0b"/>
  <circle cx="80" cy="40" r="2.5" fill="#f59e0b"/>
  <circle cx="75" cy="50" r="2.5" fill="#f59e0b"/>
  <circle cx="85" cy="60" r="2.5" fill="#f59e0b"/>
  
  <!-- Additional circuit details -->
  <path d="M62 32 L68 38" stroke="#f59e0b" stroke-width="1.5"/>
  <path d="M72 42 L78 48" stroke="#f59e0b" stroke-width="1.5"/>
  <path d="M67 52 L73 58" stroke="#f59e0b" stroke-width="1.5"/>
  
  <!-- Small connection points -->
  <circle cx="60" cy="35" r="1.5" fill="#f59e0b"/>
  <circle cx="58" cy="45" r="1.5" fill="#f59e0b"/>
  <circle cx="60" cy="55" r="1.5" fill="#f59e0b"/>
</svg> 